<svg version="1.1" id="&#x56FE;&#x5C42;_1" xmlns="http://www.w3.org/2000/svg" xmlns:xlink="http://www.w3.org/1999/xlink" x="0px"
	 y="0px" viewBox="0 0 576.883 200" style="enable-background:new 0 0 576.883 200;" xml:space="preserve">
<path style="fill:#00A1D6;" d="M493.969,77.02c0.888,0.148,7.84-1.405,8.136-0.888c0.444,0.666,3.55,23.002,2.737,23.15
	c-0.814,0.148-6.583,1.479-6.583,1.479C497.815,97.729,494.043,78.943,493.969,77.02 M505.063,74.875l3.032,24.037
	c1.553-0.074,7.84-0.518,8.432-0.592c-0.888-9.097-2.441-23.446-2.441-23.446C511.128,74.283,508.022,74.283,505.063,74.875
	 M499.073,108.232c0,0,13.683-3.476,18.638-1.775c2.515,9.097,7.1,60.131,7.544,62.202c-3.106,0.37-13.313,1.257-14.127,1.479
	C510.463,166.291,499.073,110.672,499.073,108.232 M549.736,77.612c0.814,0.222,8.062-0.74,8.136-0.222
	c0.148,1.775,0.888,23.224,0.074,23.298c-0.814,0.074-6.583,0.592-6.583,0.592C551.216,98.321,549.588,79.609,549.736,77.612
	 M560.904,77.02l0.592,23.742c1.553,0,7.766,0.37,8.432,0.296c-0.148-9.097,0-23.446,0-23.446
	C566.969,77.094,563.937,76.872,560.904,77.02 M551.363,108.897c0,0,13.979-1.849,18.712,0.37c1.035,10.65,0.888,60.279,1.035,62.35
	c-3.18,0-13.313,0.148-14.127,0.296C556.837,168.067,551.142,111.338,551.363,108.897 M518.894,47.879
	c8.062,41.123,14.201,111.386,14.423,115.898c0,0,6.361,0.148,13.535,0.592c-4.216-44.303-9.393-115.084-9.319-117.377
	C535.758,44.995,518.894,47.879,518.894,47.879 M501.144,145.138c-1.553-11.538-42.824-24.629-66.048-20.413
	c0,0-2.884-25.443-3.994-50.072c-0.962-21.153-0.148-41.714,0.074-45.117c-1.553-1.109-18.268,6.878-27.292,10.207
	c0,0,10.798,45.708,18.638,140.527c0,0,12.499,1.331,33.948-2.811C477.92,173.318,503.288,160.374,501.144,145.138 M450.702,165.922
	l-3.624-26.108c0.888-0.444,23.15,7.84,25.517,9.319C472.225,150.76,450.702,165.922,450.702,165.922 M322.083,77.02
	c0.888,0.148,7.84-1.405,8.136-0.888c0.444,0.666,3.55,23.002,2.737,23.15c-0.814,0.148-6.583,1.479-6.583,1.479
	C325.929,97.729,322.157,78.943,322.083,77.02 M333.177,74.875l3.032,24.037c1.553-0.074,7.84-0.518,8.432-0.592
	c-0.961-9.097-2.441-23.446-2.441-23.446C339.242,74.283,336.135,74.283,333.177,74.875 M327.186,108.232
	c0,0,13.683-3.476,18.638-1.775c2.515,9.097,7.1,60.131,7.544,62.202c-3.106,0.37-13.313,1.257-14.127,1.479
	C338.576,166.291,327.186,110.672,327.186,108.232 M377.85,77.612c0.814,0.222,8.062-0.74,8.136-0.222
	c0.148,1.775,0.888,23.224,0.074,23.298c-0.814,0.074-6.583,0.592-6.583,0.592C379.329,98.321,377.776,79.609,377.85,77.612
	 M389.018,77.02l0.592,23.742c1.553,0,7.766,0.37,8.432,0.296c-0.148-9.097,0-23.446,0-23.446
	C395.083,77.094,392.05,76.946,389.018,77.02 M379.477,108.897c0,0,13.979-1.849,18.712,0.37c1.035,10.65,0.888,60.279,1.035,62.35
	c-3.18,0-13.313,0.148-14.127,0.296C385.024,168.067,379.255,111.338,379.477,108.897 M347.008,47.879
	c8.062,41.123,14.201,111.386,14.423,115.898c0,0,6.361,0.148,13.535,0.592c-4.216-44.303-9.393-115.084-9.319-117.451
	C363.871,44.995,347.008,47.879,347.008,47.879 M329.257,145.138c-1.553-11.538-42.824-24.629-66.048-20.413
	c0,0-2.884-25.443-3.994-50.072c-0.961-21.153-0.148-41.714,0.074-45.117c-1.553-1.035-18.269,6.878-27.292,10.207
	c0,0,10.798,45.708,18.638,140.527c0,0,12.5,1.331,33.948-2.811C306.033,173.318,331.402,160.374,329.257,145.138 M278.815,165.922
	l-3.624-26.108c0.888-0.444,23.15,7.84,25.517,9.319C300.338,150.76,278.815,165.922,278.815,165.922"/>
<g>
	<path style="fill:#03A5DD;" d="M203.924,66.84c-0.681-28.592-25.528-34.038-25.528-34.038s-19.403-0.156-44.639-0.285
		l18.304-17.739c0,0,2.95-3.631-2.042-7.716c-4.991-4.085-5.261-2.269-6.942-1.134c-1.53,1.032-23.476,22.639-27.401,26.507
		c-12.104-0.048-24.746-0.082-36.734-0.087l9.86-0.001c0,0-26.322-25.965-28.003-27.099c-1.681-1.135-1.95-2.951-6.942,1.134
		c-4.992,4.085-2.042,7.716-2.042,7.716L70.647,32.35l1.043,0c-20.887,0.015-38.89,0.135-47.147,0.452
		C-2.006,40.29,0.036,66.84,0.036,66.84S0.376,123.683,0,152.445c2.857,28.762,25.054,33.357,25.054,33.357s8.85,0.17,15.317,0.17
		c0.681,1.872,1.191,10.892,11.233,10.895c10.041,0.002,11.233-10.895,11.233-10.895s73.523-0.34,79.65-0.34
		c0.34,3.064,1.872,11.403,11.913,11.233c10.041-0.17,10.722-11.913,10.722-11.913s3.404-0.34,13.615,0
		c23.826-4.425,25.188-32.336,25.188-32.336S203.583,95.431,203.924,66.84z M183.423,157.835c0,4.511-3.572,8.169-7.978,8.169H30.52
		c-4.406,0-7.978-3.658-7.978-8.169V61.849c0-4.511,3.571-8.169,7.978-8.169h144.926c4.406,0,7.978,3.658,7.978,8.169V157.835z"/>
	<g>
		<polygon style="fill:#03A5DD;" points="37.801,88.955 80.348,80.786 83.582,96.784 41.375,104.953 		"/>
		<polygon style="fill:#03A5DD;" points="170.208,88.955 127.66,80.786 124.427,96.784 166.634,104.953 		"/>
		<path style="fill:#03A5DD;" d="M83.582,128.609c0,0,9.36,16.849,19.742-5.446c10.041,21.784,21.103,5.775,21.103,5.775
			l6.297,4.096c0,0-11.743,18.891-27.23,4.595c-13.104,14.296-26.89-4.559-26.89-4.559L83.582,128.609z"/>
	</g>
</g>
</svg>
