<svg version="1.1" id="&#x56FE;&#x5C42;_1" xmlns="http://www.w3.org/2000/svg" xmlns:xlink="http://www.w3.org/1999/xlink" x="0px"
     y="0px" viewBox="0 0 125 32" style="enable-background:new 0 0 576.883 200;" xml:space="preserve">
        <g fill-rule="nonzero" fill="none">
            <path d="M.031 17.003A16 16 0 1116 32h-.652a4.062 4.062 0 01-3.88-3.28 9.958 9.958 0 00-8.225-8.138 4.057 4.057 0 01-3.221-3.768v-.211"
                  fill="url(#logo.sprite_a)"/>
            <path d="M14.879 22.076a15.304 15.304 0 007.358-4.218 2.684 2.684 0 000-3.678 15.314 15.314 0 00-7.368-4.234 2.662 2.662 0 00-3.196 1.833 15.438 15.438 0 000 8.455 2.696 2.696 0 003.206 1.842z"
                  fill="#FFF"/>
            <path d="M59.977 6.377l-18.245-.016a.31.31 0 00-.31.28l-.134 1.274a.256.256 0 00.264.28h6.252c-.059.41-.37 2.335-.447 2.795h-5.33a.506.506 0 00-.507.435l-1.463 13.81a.466.466 0 00.485.51h16.584a.596.596 0 00.59-.51l1.46-13.795a.405.405 0 00-.428-.45H53.42l.311-2.796h6.07a.289.289 0 00.288-.248l.143-1.333a.234.234 0 00-.073-.176.23.23 0 00-.181-.06zM49.627 8.2h2.256l-.31 2.796H49.17c.09-.46.4-2.389.457-2.796zm7.3 4.66a.227.227 0 01.24.251l-1.122 10.586a.267.267 0 01-.267.233H42.294a.214.214 0 01-.22-.233l1.12-10.586a.31.31 0 01.293-.251h3.516c-.292 1.28-.761 3.106-1.156 4.348a21.998 21.998 0 01-1.164 2.982.177.177 0 00.167.258h1.46a.485.485 0 00.444-.289c.147-.335.292-.714.438-1.127.193-.537.378-1.107.556-1.712.178-.606.389-1.606.56-2.267.17-.662.348-1.535.487-2.206h2.597l-.758 7.144a.411.411 0 00.429.45h3.83a.233.233 0 00.236-.201l.152-1.432a.184.184 0 00-.193-.202h-2.485l.622-5.765 3.702.019zM106.31 14.14h2.696l-.603 5.727a.307.307 0 00.076.246.303.303 0 00.235.105h1.093a.437.437 0 00.423-.382l.599-5.693h3.2a.2.2 0 00.192-.159l.152-1.438a.153.153 0 00-.096-.158.153.153 0 00-.065-.01h-2.973l.264-2.485h2.289a.196.196 0 00.196-.168l.152-1.428a.154.154 0 00-.096-.158.153.153 0 00-.065-.01h-2.289l.177-1.65a.264.264 0 00-.07-.207.263.263 0 00-.204-.081h-1.22a.338.338 0 00-.336.285l-.621 5.902h-1.553a.14.14 0 01-.14-.158l.528-5.07a.261.261 0 00-.163-.27.266.266 0 00-.11-.018h-1.159a.34.34 0 00-.335.285l-.681 6.092-.037.31a.525.525 0 00.544.59z"
                  fill="#000"/>
            <path d="M105.278 20.28h1.361a.241.241 0 00.242-.199c.118-.773.485-3.165.575-4.084a.28.28 0 00-.016-.107.26.26 0 00-.254-.172h-1.305a.238.238 0 00-.245.207c-.24 2.175-.473 3.156-.622 4.06a.26.26 0 00.011.11.26.26 0 00.145.163.26.26 0 00.108.022zM121.676 22.7a13.684 13.684 0 01-.932-2.112.365.365 0 00-.354-.255h-.969a8.783 8.783 0 00.519-2.093l.456-4.697a.243.243 0 00-.068-.199.251.251 0 00-.196-.077h-1.242a.314.314 0 00-.209.078.315.315 0 00-.102.198l-.497 4.694a8.103 8.103 0 01-.537 2.053 10.04 10.04 0 01-1.156 1.863 15.813 15.813 0 01-1.674 1.917c-.491.472-.895.854-1.451 1.326a.215.215 0 00.137.38h1.634c.303-.003.593-.122.811-.333a18.442 18.442 0 001.571-1.622 14.158 14.158 0 001.6-2.454c.283.622.671 1.463.988 2.07.35.705.746 1.387 1.186 2.04a.765.765 0 00.622.31h1.416a.242.242 0 00.193-.335c-.639-.88-1.222-1.8-1.746-2.752z"
                  fill="#000"/>
            <path d="M124.369 6.386h-8.387a.338.338 0 00-.335.286l-.134 1.243a.276.276 0 00.013.11.263.263 0 00.261.175h3.221l-.621 1.92h-2.346a.518.518 0 00-.522.447l-.987 9.36a.264.264 0 00.276.288h1.221a.336.336 0 00.335-.286l.845-8.035a.089.089 0 01.03-.057.086.086 0 01.06-.021h4.762a.074.074 0 01.056.022.083.083 0 01.017.025c.004.01.005.02.005.03l-.848 8.036a.28.28 0 00.014.112.267.267 0 00.262.178h1.221a.349.349 0 00.335-.311l.988-9.34a.394.394 0 00-.108-.318.4.4 0 00-.311-.124h-3.467l.594-1.923h3.342a.334.334 0 00.335-.285l.134-1.258a.261.261 0 00-.261-.274zM113.768 15.764h-1.243a.31.31 0 00-.311.273c-.083.563-.254 2.06-.751 3.107-.969 2.05-2.398 3.593-6.231 4.572-.143.034-.267.087-.37.108a.414.414 0 00-.311.354l-.146 1.346a.262.262 0 00.032.166.26.26 0 00.13.11.28.28 0 00.168 0c7.495-1.979 8.728-5.125 9.3-9.756a.265.265 0 00-.013-.109.25.25 0 00-.254-.171zM90.275 19.28c-.152-.9-.568-3.755-.649-4.557a.24.24 0 00-.245-.208H87.98c.109-.214 1.77-3.516 2.06-4.156.183-.397.372-.832.515-1.242a.357.357 0 00-.354-.482h-1.982l.053-.51.17-1.652a.259.259 0 00-.27-.282h-1.208a.332.332 0 00-.332.285l-.227 2.175H83.78a.333.333 0 00-.332.285l-.096 1.262a.26.26 0 00.273.288h4.318c-.622 1.554-4.66 8.114-5.703 9.63a.205.205 0 00.17.332h1.554a.582.582 0 00.469-.252c.111-.17 1.313-2.174 1.497-2.534l-.88 7.827a.261.261 0 00.283.299h1.305a.339.339 0 00.335-.29l.932-9.995c.15 1.242.423 3.25.52 3.88a.236.236 0 00.241.195h1.36a.26.26 0 00.25-.298zM101.846 6.408h-8.927a.531.531 0 00-.528.454l-1.31 12.424a.26.26 0 00.272.286h1.243a.335.335 0 00.332-.289l1.153-10.915a.149.149 0 01.149-.127h5.945a.115.115 0 01.09.037c.012.013.02.027.026.043.005.016.007.033.005.05l-1.18 10.912a.263.263 0 00.276.29h1.221a.334.334 0 00.335-.287l1.339-12.424a.412.412 0 00-.441-.454z"
                  fill="#000"/>
            <path d="M101.219 23.952h-3.557a.087.087 0 01-.09-.1l.512-4.945a.464.464 0 00-.469-.518h-.789c.207-.804.356-1.62.448-2.445l.602-5.46a.264.264 0 00-.267-.296h-1.28a.31.31 0 00-.31.283s-.6 5.464-.603 5.473a10.814 10.814 0 01-1.019 3.762c-1.177 2.301-3.106 4.137-5.175 5.765a.168.168 0 00.081.31h1.917c.374.003.738-.128 1.025-.37a23.529 23.529 0 002.224-2.403 17.77 17.77 0 001.63-2.64l-.493 4.718a.62.62 0 00.62.702h4.794a.344.344 0 00.332-.311l.131-1.242a.273.273 0 00-.264-.283zM80.746 6.268l-14.994.622a.73.73 0 00-.677.62l-.283 2.69a52.754 52.754 0 01-.556 3.862 59.936 59.936 0 01-.885 4c-.354 1.364-.742 2.526-1.208 3.874a38.004 38.004 0 01-1.264 3.178.486.486 0 00.481.674h.752a.749.749 0 00.661-.38 39.49 39.49 0 001.351-3.658c.438-1.38.796-2.547 1.11-3.899.313-1.35.515-2.652.723-3.91.208-1.258.398-2.681.506-3.728l.196-1.531 3.203-.134c-.736 6.523-2.976 16.003-3.01 16.103l-.103.31a.637.637 0 00.603.827h7.42a.462.462 0 00.46-.488l-.512-7.523a.31.31 0 00-.31-.295h-1.243a.312.312 0 00-.311.335l.41 5.983a.132.132 0 01-.036.1.134.134 0 01-.098.043h-4.087a.092.092 0 01-.075-.037.095.095 0 01-.015-.081A133.806 133.806 0 0071.716 8.47l.854-.038 4.632-.183c-.022.31-.047.621-.069.947-.394 5.433-.254 10.832.743 16.196a.532.532 0 00.543.395h1.013c.388 0 .519-.364.44-.702a46.902 46.902 0 01-1.061-8.928 62.492 62.492 0 010-4.038c.018-.673.048-1.346.09-2.019.021-.338.043-.674.068-1.01 0-.139-.022-.847.075-.931l1.571-.084a.286.286 0 00.261-.242l.13-1.33a.227.227 0 00-.26-.236z"
                  fill="#000"/>
        </g>
        <linearGradient x1="50%" y1=".049%" x2="50%" y2="100.039%" id="logo.sprite_a">
            <stop stop-color="#FA5050" offset="0%"/>
            <stop stop-color="#FB0414" offset="99%"/>
        </linearGradient>
</svg>